<mxfile host="app.diagrams.net" modified="2023-10-21T23:44:23.872Z" agent="Mozilla/5.0 (Macintosh; Intel Mac OS X 10_15_7) AppleWebKit/537.36 (KHTML, like Gecko) Chrome/117.0.0.0 Safari/537.36" version="22.0.6" etag="AZ0yUQqzuPEZrceig9yB" type="github">
  <diagram name="第 1 页" id="am9eC9zUv0BLZ8A6UDZ1">
    <mxGraphModel>
      <root>
        <mxCell id="0" />
        <mxCell id="1" parent="0" />
      </root>
    </mxGraphModel>
  </diagram>
</mxfile>
